<svg xmlns="http://www.w3.org/2000/svg" xmlns:xlink="http://www.w3.org/1999/xlink" width="40" zoomAndPan="magnify" viewBox="0 0 30 44.999999" height="60" preserveAspectRatio="xMidYMid meet" version="1.0"><path fill="#787878" d="M 14.914062 14.6875 C 11.960938 14.6875 9.214844 15.558594 6.894531 17.035156 L 6.894531 11.320312 C 6.894531 6.90625 10.5 3.304688 14.914062 3.304688 C 17.054688 3.304688 19.0625 4.128906 20.585938 5.636719 C 22.105469 7.171875 22.933594 9.179688 22.933594 11.320312 C 22.933594 12.132812 23.597656 12.796875 24.410156 12.796875 C 25.222656 12.796875 25.886719 12.132812 25.886719 11.320312 C 25.886719 8.398438 24.75 5.652344 22.667969 3.554688 C 20.585938 1.488281 17.839844 0.351562 14.914062 0.351562 C 8.859375 0.351562 3.941406 5.265625 3.941406 11.320312 L 3.941406 19.515625 C 1.460938 22.191406 -0.0585938 25.75 -0.0585938 29.675781 C -0.0585938 37.929688 6.660156 44.648438 14.914062 44.648438 C 23.167969 44.648438 29.886719 37.929688 29.886719 29.675781 C 29.886719 21.40625 23.167969 14.6875 14.914062 14.6875 Z M 20.660156 27.652344 L 14.53125 33.78125 C 14.234375 34.078125 13.867188 34.210938 13.480469 34.210938 C 13.097656 34.210938 12.730469 34.078125 12.433594 33.78125 L 9.171875 30.519531 C 8.59375 29.941406 8.59375 28.996094 9.171875 28.421875 C 9.746094 27.84375 10.675781 27.84375 11.253906 28.421875 L 13.480469 30.652344 L 18.578125 25.558594 C 19.152344 24.980469 20.082031 24.980469 20.660156 25.558594 C 21.234375 26.132812 21.234375 27.078125 20.660156 27.652344 Z M 20.660156 27.652344 " fill-opacity="1" fill-rule="nonzero"/></svg>